<svg width="47" height="45" viewBox="0 0 47 45" fill="none" xmlns="http://www.w3.org/2000/svg">
<path fill-rule="evenodd" clip-rule="evenodd" d="M10.575 0.833008C8.19557 0.833008 6.26667 2.76191 6.26667 5.14134C6.26667 5.41171 6.29157 5.67625 6.33921 5.93282C2.66758 7.06748 0 10.4887 0 14.533V35.6997C0 40.6702 4.02944 44.6997 9 44.6997H38C42.9706 44.6997 47 40.6702 47 35.6997V14.533C47 10.4887 44.3324 7.06748 40.6608 5.93281C40.7084 5.67625 40.7333 5.41171 40.7333 5.14134C40.7333 2.76191 38.8044 0.833008 36.425 0.833008H34.8583C32.4789 0.833008 30.55 2.76191 30.55 5.14134C30.55 5.27337 30.5559 5.40401 30.5676 5.53301H16.4324C16.4441 5.40401 16.45 5.27337 16.45 5.14134C16.45 2.76191 14.5211 0.833008 12.1417 0.833008H10.575ZM28.2 21.334V15.694C28.2 14.7875 27.6063 14.1497 26.6828 14.1497H20.3172C19.3937 14.1497 18.8 14.7875 18.8 15.694V20.864H22.2632V17.5068H24.7368V20.864L18.8 32.7818V37.6497H28.2V34.2925H22.2632V33.2518L28.2 21.334Z" fill="#FF121F"/>
</svg>
